<svg width="1024" height="1024" viewBox="0 0 1024 1024" fill="none" xmlns="http://www.w3.org/2000/svg">
<rect width="1024" height="1024" rx="160" fill="white"/>
<mask id="mask0_5_84" style="mask-type:alpha" maskUnits="userSpaceOnUse" x="83" y="83" width="858" height="858">
<rect x="83.4783" y="83.4783" width="857.043" height="857.043" rx="80" fill="white"/>
</mask>
<g mask="url(#mask0_5_84)">
<rect x="83.4783" y="83.4783" width="857.043" height="857.043" fill="white"/>
<rect x="83.4783" y="651.13" width="857.043" height="11.1304" fill="#CBD5E1"/>
<rect x="83.4783" y="361.739" width="857.043" height="11.1304" fill="#CBD5E1"/>
<rect x="651.131" y="940.522" width="857.043" height="11.1304" transform="rotate(-90 651.131 940.522)" fill="#CBD5E1"/>
<rect x="361.739" y="940.522" width="857.043" height="11.1304" transform="rotate(-90 361.739 940.522)" fill="#CBD5E1"/>
<rect x="83.4783" y="83.4783" width="278.261" height="278.261" fill="#F1F5F9"/>
<path d="M236.611 190.152C235.424 213.422 234.83 231.943 234.83 245.715C234.83 252.839 235.008 259.606 235.364 266.017C236.314 266.73 238.154 267.086 240.885 267.086L244.981 266.908C246.643 266.67 248.186 266.552 249.611 266.552C252.698 266.552 255.072 267.086 256.735 268.154C258.515 269.223 259.406 271.301 259.406 274.387C259.406 277.356 258.515 279.671 256.735 281.333C255.072 282.995 251.57 283.826 246.227 283.826C241.716 283.826 236.255 283.47 229.843 282.758C228.3 282.639 226.816 282.52 225.391 282.401C223.967 282.283 222.661 282.223 221.473 282.223C214.944 282.342 210.076 282.579 206.87 282.936C203.665 283.292 200.044 283.47 196.007 283.47C192.326 283.47 190.486 280.68 190.486 275.1C190.486 269.757 193.929 267.086 200.815 267.086C201.884 267.086 203.605 267.205 205.98 267.442C207.998 267.798 210.135 267.976 212.391 267.976C213.697 267.976 214.765 267.917 215.597 267.798C215.715 259.844 216.131 248.268 216.843 233.071C217.555 215.263 217.912 202.084 217.912 193.536C217.318 193.655 215.24 194.486 211.679 196.029C206.217 198.76 202.181 200.125 199.569 200.125C198.144 200.125 196.838 199.413 195.651 197.988C194.464 196.445 193.87 194.664 193.87 192.646C193.87 190.627 195.117 188.668 197.61 186.769C200.103 184.869 204.14 182.376 209.72 179.289C212.806 177.746 215.775 176.024 218.624 174.124C219.336 173.65 220.345 173.175 221.651 172.7C223.076 172.225 224.145 171.987 224.857 171.987C227.944 171.987 230.734 172.64 233.227 173.946C235.839 175.134 237.145 176.736 237.145 178.755L236.611 190.152Z" fill="black"/>
<path d="M262.322 471.997C260.779 479.239 258.82 486.422 256.445 493.546C254.189 500.669 251.281 508.861 247.719 518.122C241.664 534.387 237.39 547.506 234.897 557.479C232.878 564.246 230.979 569.114 229.198 572.082C227.417 575.05 225.339 576.534 222.965 576.534C221.065 576.534 218.513 575.406 215.307 573.151C214.476 572.082 214.061 570.598 214.061 568.698C214.061 567.155 214.476 564.899 215.307 561.931C216.138 558.844 217.147 555.461 218.335 551.78L220.472 545.369C222.015 540.264 224.627 533.378 228.307 524.711C231.038 518.062 233.472 511.651 235.609 505.478C237.865 499.304 240.061 491.943 242.198 483.395C236.025 485.294 229.91 486.244 223.855 486.244C220.887 486.244 216.376 485.829 210.321 484.998C205.334 484.285 201.773 483.929 199.635 483.929C199.754 485.71 200.645 489.094 202.307 494.08C204.325 499.185 205.334 503.044 205.334 505.656C205.334 507.199 204.8 508.505 203.731 509.574C202.663 510.642 200.941 511.176 198.567 511.176C195.48 511.176 193.106 510.227 191.443 508.327C189.9 506.309 188.594 504.053 187.526 501.56C186.576 498.948 185.863 497.167 185.389 496.217C183.726 492.418 182.42 488.5 181.471 484.463C180.521 480.308 180.046 476.627 180.046 473.422C180.046 471.522 180.521 469.86 181.471 468.435C182.539 467.011 183.726 466.298 185.032 466.298C186.813 466.536 189.485 467.011 193.046 467.723C198.745 468.673 203.494 469.445 207.293 470.038C211.211 470.513 215.366 470.751 219.759 470.751C230.563 470.751 238.874 468.851 244.691 465.052C245.523 464.577 246.769 464.339 248.431 464.339C251.518 464.339 254.605 465.111 257.692 466.655C260.779 468.079 262.322 469.86 262.322 471.997Z" fill="black"/>
<rect x="372.87" y="372.87" width="278.261" height="278.261" fill="#0EA5E9"/>
<path d="M501.159 469.148C501.159 474.965 500.09 481.733 497.953 489.45C495.935 497.048 492.967 506.427 489.049 517.587L484.953 529.875C486.971 530.232 489.049 530.41 491.186 530.41C494.867 530.41 500.387 530.054 507.748 529.341C515.109 528.629 520.392 528.273 523.598 528.273L523.42 508.683C523.182 495.148 523.064 485.176 523.064 478.764C523.064 470.335 525.854 466.12 531.434 466.12C535.827 466.12 538.617 467.248 539.804 469.504C541.11 471.76 541.763 475.143 541.763 479.655C541.763 484.285 541.407 491.468 540.694 501.203C540.576 503.103 540.397 506.249 540.16 510.642C539.923 515.035 539.804 518.834 539.804 522.04L539.982 527.738L543.544 527.56C546.393 527.323 548.589 527.204 550.133 527.204C552.982 527.204 555.713 528.154 558.325 530.054C560.937 531.834 562.243 533.971 562.243 536.465C562.243 539.433 561.768 541.748 560.818 543.41C559.987 545.072 558.978 545.903 557.791 545.903C555.772 545.903 553.22 545.666 550.133 545.191C549.421 545.191 548.352 545.132 546.927 545.013C545.503 544.775 544.137 544.657 542.831 544.657L539.804 544.835L539.982 568.876C539.982 571.37 539.151 573.269 537.489 574.575C535.827 575.881 533.927 576.534 531.79 576.534C529.178 576.534 526.863 575.703 524.845 574.041C522.826 572.379 521.817 570.301 521.817 567.808C521.817 559.853 521.936 553.62 522.173 549.109C522.292 548.04 522.351 546.734 522.351 545.191C518.79 545.072 512.616 545.488 503.83 546.438C495.52 547.387 489.227 547.862 484.953 547.862C479.492 547.862 474.861 547.091 471.062 545.547C467.382 544.004 465.542 541.57 465.542 538.246C465.542 535.04 466.195 531.122 467.501 526.492C468.806 521.862 470.765 515.628 473.377 507.793C474.565 504.706 475.455 502.153 476.049 500.135C478.186 494.08 479.789 488.975 480.857 484.819C481.926 480.545 483.113 475.381 484.419 469.326C484.894 467.426 485.903 466.002 487.446 465.052C488.99 464.102 490.771 463.627 492.789 463.627C494.926 463.627 496.826 464.161 498.488 465.23C500.269 466.18 501.159 467.486 501.159 469.148Z" fill="white"/>
<rect x="662.261" y="372.87" width="278.261" height="278.261" fill="#F1F5F9"/>
<path d="M810.006 481.614C805.97 483.157 802.527 485.176 799.677 487.669C796.828 490.043 794.275 492.952 792.019 496.395L789.17 500.847C787.033 504.053 785.43 506.665 784.362 508.683C783.293 510.701 782.581 512.838 782.225 515.094C788.042 509.158 796.353 506.19 807.157 506.19C811.787 506.19 816.655 507.496 821.76 510.108C826.984 512.72 831.199 515.747 834.404 519.19C836.423 521.446 838.085 524.889 839.391 529.519C840.815 534.149 841.528 539.077 841.528 544.3C841.528 548.456 840.281 552.73 837.788 557.123C835.295 561.397 832.208 565.137 828.527 568.342C824.966 571.548 821.641 573.566 818.554 574.397C813.805 575.584 809.709 576.178 806.266 576.178C798.431 576.178 791.188 574.041 784.54 569.767C777.891 565.493 772.608 559.794 768.69 552.671C764.772 545.428 762.813 537.592 762.813 529.163C762.813 517.528 765.603 506.427 771.183 495.861C776.882 485.176 784.362 476.509 793.622 469.86C795.166 468.792 797.896 467.664 801.814 466.476C805.851 465.17 809.413 464.517 812.499 464.517C818.317 464.517 821.226 466.833 821.226 471.463C821.226 474.194 820.217 476.331 818.198 477.874C816.299 479.417 813.568 480.664 810.006 481.614ZM802.883 559.794C805.613 559.794 807.929 559.675 809.828 559.438C811.728 559.082 813.449 558.429 814.993 557.479C817.367 555.817 819.445 553.858 821.226 551.602C823.125 549.227 824.075 546.972 824.075 544.835C824.075 536.643 822.057 530.885 818.02 527.56C814.102 524.236 809.472 522.514 804.129 522.396C801.399 522.396 798.253 523.167 794.691 524.711C791.248 526.136 788.28 528.035 785.786 530.41C783.412 532.784 782.225 535.099 782.225 537.355C782.225 542.46 783.293 546.734 785.43 550.177C787.686 553.502 790.417 555.935 793.622 557.479C796.828 559.022 799.915 559.794 802.883 559.794Z" fill="black"/>
<rect x="83.4783" y="662.261" width="278.261" height="278.261" fill="#F1F5F9"/>
<path d="M212.703 847.939C216.739 846.633 220.598 844.258 224.278 840.815C228.077 837.372 231.224 833.514 233.717 829.24C236.329 824.847 237.872 820.632 238.347 816.595C235.023 818.97 231.639 820.632 228.196 821.582C224.753 822.532 220.776 823.007 216.264 823.007C210.209 823.007 205.223 821.997 201.305 819.979C197.387 817.842 193.232 814.815 188.839 810.897C188.127 810.184 187.236 808.641 186.168 806.266C185.099 803.773 184.149 800.746 183.318 797.184C182.487 793.503 182.072 789.764 182.072 785.964C182.072 782.521 183.14 778.9 185.277 775.101C187.414 771.302 190.086 767.918 193.291 764.95C196.615 761.863 199.762 759.667 202.73 758.361C205.46 757.174 208.607 756.165 212.168 755.334C215.849 754.384 218.936 753.909 221.429 753.909C229.858 753.909 236.922 755.868 242.621 759.786C248.439 763.704 252.713 768.927 255.443 775.457C258.174 781.987 259.539 789.229 259.539 797.184C259.539 810.837 256.512 823.303 250.457 834.582C244.402 845.742 236.744 854.409 227.484 860.583C225.94 861.651 223.269 862.839 219.47 864.145C215.789 865.332 212.406 865.926 209.319 865.926C206.944 865.926 204.867 864.857 203.086 862.72C201.305 860.583 200.415 858.149 200.415 855.418C200.415 853.519 201.068 852.213 202.374 851.5C203.68 850.669 205.817 849.838 208.785 849.007L212.703 847.939ZM221.429 769.046C219.529 769.046 217.274 769.462 214.662 770.293C212.168 771.005 210.031 771.896 208.25 772.964C206.232 774.151 204.273 775.992 202.374 778.485C200.593 780.859 199.702 782.7 199.702 784.006C199.702 799.558 205.995 807.335 218.579 807.335C221.429 807.335 224.575 806.741 228.018 805.554C231.58 804.248 234.548 802.467 236.922 800.211C239.297 797.956 240.484 795.403 240.484 792.554C240.484 784.718 238.822 778.841 235.498 774.923C232.292 771.005 227.603 769.046 221.429 769.046Z" fill="black"/>
<rect x="372.87" y="662.261" width="278.261" height="278.261" fill="#F1F5F9"/>
<path d="M529.942 806.445C537.184 809.294 543.002 813.093 547.395 817.842C551.788 822.591 553.984 828.052 553.984 834.226C553.984 836.007 553.568 838.263 552.737 840.993C552.025 843.605 551.016 845.861 549.71 847.761C541.874 859.871 528.043 865.926 508.216 865.926C497.887 865.926 488.923 863.848 481.325 859.693C473.726 855.418 469.927 849.067 469.927 840.637C469.927 828.646 478.178 818.376 494.681 809.828C479.247 804.129 471.53 795.7 471.53 784.54C471.53 777.773 473.429 772.074 477.229 767.444C481.028 762.813 486.014 759.37 492.188 757.114C498.48 754.859 505.307 753.731 512.668 753.731C518.129 753.731 523.709 755.037 529.408 757.649C535.107 760.142 539.025 763.407 541.162 767.444C543.299 771.955 544.367 776.17 544.367 780.088C544.367 785.193 543.299 789.882 541.162 794.157C539.143 798.431 535.404 802.527 529.942 806.445ZM511.421 801.102C515.22 798.609 518.129 796.59 520.147 795.047C522.285 793.385 524.065 791.426 525.49 789.17C527.034 786.796 527.805 784.065 527.805 780.978C527.805 777.416 526.381 774.448 523.531 772.074C520.682 769.699 517.239 768.512 513.202 768.512C504.535 768.512 498.48 769.996 495.037 772.964C491.713 775.932 490.051 779.435 490.051 783.471C490.051 786.677 491.119 789.408 493.256 791.663C495.393 793.8 497.768 795.522 500.38 796.828C503.111 798.015 506.791 799.44 511.421 801.102ZM535.107 832.98C535.107 830.961 533.801 828.824 531.189 826.568C528.696 824.313 525.728 822.354 522.285 820.692C518.842 818.911 515.933 817.723 513.558 817.13C509.522 818.792 505.069 821.463 500.202 825.144C495.334 828.705 492.366 831.317 491.297 832.98C490.11 834.642 489.279 836.066 488.804 837.254C488.448 838.322 488.27 839.628 488.27 841.172C488.27 842.952 489.338 844.674 491.475 846.336C493.613 847.879 496.165 849.126 499.133 850.076C502.101 851.026 504.654 851.501 506.791 851.501C515.22 851.501 522.047 849.838 527.271 846.514C532.495 843.071 535.107 838.56 535.107 832.98Z" fill="black"/>
<rect x="372.87" y="83.4783" width="278.261" height="278.261" fill="#F1F5F9"/>
<path d="M498.532 190.508C497.701 193.833 497.167 198.226 496.929 203.687C496.692 208.436 496.336 211.998 495.861 214.372C499.304 212.947 502.569 212.057 505.656 211.701C508.742 211.226 512.66 210.988 517.409 210.988C524.77 210.988 531.181 212.71 536.643 216.153C542.104 219.477 546.259 223.989 549.109 229.688C551.958 235.268 553.383 241.263 553.383 247.674C553.383 250.168 552.552 253.551 550.89 257.825C549.228 261.981 547.506 265.186 545.725 267.442C541.57 272.903 536.762 277.118 531.3 280.086C525.839 282.936 519.903 284.36 513.491 284.36C508.624 284.36 504.172 283.707 500.135 282.401C496.217 280.977 492.002 279.077 487.491 276.703C482.861 274.209 479.477 271.657 477.34 269.045C475.322 266.314 474.312 262.93 474.312 258.894C474.312 256.757 475.203 255.035 476.984 253.729C478.883 252.305 480.664 251.592 482.326 251.592C483.395 251.592 484.345 251.889 485.176 252.483C486.007 253.076 487.372 254.264 489.272 256.044L493.724 260.319C496.573 262.693 499.363 264.474 502.094 265.661C504.943 266.848 508.386 267.442 512.423 267.442C516.103 267.442 519.072 266.967 521.327 266.017C525.839 264.236 529.341 261.921 531.834 259.072C534.446 256.223 535.752 251.652 535.752 245.359C535.752 239.304 533.734 234.615 529.697 231.29C525.661 227.847 518.834 226.126 509.217 226.126C507.911 226.126 506.012 226.482 503.519 227.194C501.025 227.907 498.592 228.678 496.217 229.509C490.518 231.409 487.016 232.359 485.71 232.359C484.048 232.359 482.386 231.647 480.723 230.222C479.061 228.797 478.23 226.898 478.23 224.523C480.367 210.157 481.436 198.226 481.436 188.728L481.258 184.275C481.02 182.138 480.902 180.357 480.902 178.933C480.902 176.796 482.029 175.193 484.285 174.124C486.66 172.937 489.094 172.344 491.587 172.344C493.724 172.344 498.354 172.7 505.478 173.412L514.026 174.124C515.094 174.243 516.697 174.303 518.834 174.303L525.423 174.124C526.729 174.006 528.629 173.946 531.122 173.946C534.684 173.946 537.652 174.481 540.026 175.549C542.401 176.618 543.588 178.339 543.588 180.714C543.588 184.394 542.995 187.065 541.807 188.728C540.62 190.39 539.255 191.221 537.711 191.221C536.287 191.221 533.912 190.983 530.588 190.508C526.195 190.034 521.03 189.796 515.094 189.796C510.939 189.796 505.418 190.034 498.532 190.508Z" fill="black"/>
</g>
</svg>
