<?xml version="1.0" standalone="no"?>
<!DOCTYPE svg PUBLIC "-//W3C//DTD SVG 20010904//EN"
 "http://www.w3.org/TR/2001/REC-SVG-20010904/DTD/svg10.dtd">
<svg version="1.0" xmlns="http://www.w3.org/2000/svg"
 width="700.000000pt" height="700.000000pt" viewBox="0 0 700.000000 700.000000"
 preserveAspectRatio="xMidYMid meet">
<metadata>
Created by potrace 1.14, written by Peter Selinger 2001-2017
</metadata>
<g transform="translate(0.000000,700.000000) scale(0.100000,-0.100000)"
fill="#000000" stroke="none">
<path d="M970 6994 c-180 -27 -332 -82 -467 -167 -86 -54 -227 -184 -272 -250
-8 -12 -17 -24 -21 -27 -32 -28 -120 -201 -154 -304 -57 -169 -54 -22 -54
-2751 0 -2467 0 -2522 19 -2614 71 -340 285 -616 596 -770 69 -34 189 -76 248
-87 11 -2 43 -8 70 -13 32 -7 964 -9 2595 -8 l2545 2 95 27 c220 62 352 138
507 290 135 133 239 314 291 509 l27 104 0 2570 0 2570 -28 100 c-34 122 -118
297 -185 385 -104 138 -263 267 -415 338 -76 36 -211 77 -302 91 -56 9 -5035
13 -5095 5z m1580 -1514 l0 -950 73 0 c89 -1 1797 -1 1815 0 9 0 12 197 12
950 l0 950 39 0 39 0 1 -897 c0 -494 0 -923 0 -953 l1 -55 950 2 950 1 0 -39
0 -39 -950 0 -950 0 -1 -42 c0 -56 0 -1841 0 -1850 1 -5 429 -8 951 -8 l950 0
0 -39 0 -39 -946 0 c-520 0 -948 -3 -951 -6 -3 -3 -6 -430 -7 -948 l-1 -943
-37 -3 -38 -3 -2 952 -3 951 -925 0 c-509 -1 -935 -1 -947 -2 l-23 0 0 -950 0
-950 -39 0 -39 0 -1 888 c0 488 0 916 0 952 l-1 65 -950 -2 -950 -1 0 39 0 39
950 0 c753 0 950 3 951 13 0 16 0 1846 0 1870 -1 16 -53 17 -951 17 l-950 0 0
39 0 39 950 -1 950 -2 1 55 c0 30 0 459 1 953 l0 897 39 0 39 0 0 -950z m-952
328 l23 -12 -7 -170 c-12 -288 -10 -436 6 -446 8 -5 33 -7 56 -4 66 6 94 -8
94 -51 0 -59 -16 -63 -248 -60 -111 1 -206 5 -209 9 -11 11 -8 75 4 87 7 7 41
11 82 10 39 -1 72 2 72 6 8 52 20 493 14 493 -5 0 -34 -10 -66 -21 -67 -25
-89 -17 -89 32 0 32 21 49 132 109 73 39 88 41 136 18z m2079 -4 c29 -6 45
-37 37 -69 -9 -37 -30 -43 -114 -36 -41 3 -101 5 -132 3 -64 -3 -59 4 -73
-115 l-6 -48 38 8 c58 12 174 7 213 -10 188 -82 180 -358 -13 -451 -88 -43
-173 -38 -276 14 -74 37 -102 68 -104 116 -2 32 2 40 25 53 25 15 29 14 55 -7
116 -93 160 -107 237 -78 63 24 88 55 94 117 12 129 -103 184 -267 130 -79
-26 -84 -26 -105 -2 -14 15 -16 30 -11 68 3 26 8 104 11 173 5 100 9 128 22
138 13 10 55 12 182 7 91 -3 175 -8 187 -11z m-1910 -1999 c13 -9 23 -23 23
-33 0 -30 -47 -181 -101 -328 -28 -77 -52 -143 -53 -149 -10 -47 -61 -193 -74
-211 -26 -36 -77 -29 -92 12 -11 29 17 126 87 309 49 124 93 257 93 277 0 5
-15 6 -32 3 -51 -9 -107 -9 -180 -1 -78 9 -77 11 -49 -79 21 -68 16 -90 -25
-98 -17 -3 -33 2 -49 17 -30 28 -75 143 -81 210 -7 77 4 83 111 64 113 -20
238 -16 296 9 49 22 91 21 126 -2z m3843 -4 c16 -31 -15 -75 -68 -93 -52 -19
-85 -45 -124 -98 -34 -45 -70 -111 -65 -117 3 -2 22 6 43 19 55 32 161 32 224
-1 67 -34 99 -69 115 -125 31 -103 14 -182 -54 -253 -49 -51 -87 -67 -166 -67
-85 0 -145 24 -201 81 -94 94 -121 223 -78 373 28 97 102 205 175 255 71 50
178 64 199 26z m-3998 -1973 c67 -20 135 -105 154 -191 6 -28 6 -155 1 -182
-27 -118 -72 -206 -144 -278 -61 -62 -115 -90 -175 -91 -52 -1 -77 19 -78 62
0 22 14 31 98 62 43 17 108 83 139 143 27 54 25 64 -6 47 -12 -6 -45 -15 -75
-21 -73 -13 -138 3 -198 48 -55 42 -79 97 -80 185 -1 63 17 102 69 152 82 77
180 99 295 64z m2001 -6 c26 -12 54 -28 63 -36 24 -24 44 -82 44 -127 0 -49
-35 -125 -67 -147 -30 -19 -29 -27 6 -41 41 -18 98 -75 116 -117 24 -59 7
-127 -48 -186 -83 -89 -289 -114 -417 -50 -73 36 -95 68 -94 137 0 68 36 125
106 170 26 17 47 32 47 35 0 3 -24 20 -53 39 -90 56 -115 135 -72 222 55 109
238 159 369 101z"/>
<path d="M3329 3813 c-9 -10 -22 -43 -29 -73 -7 -30 -34 -123 -61 -206 -73
-223 -72 -250 11 -271 37 -9 53 -9 218 3 l102 7 -2 -88 c-1 -81 0 -89 21 -106
28 -23 64 -24 85 -3 12 12 16 37 16 108 l0 94 67 -5 c74 -5 83 1 83 54 0 44
-36 67 -103 66 l-49 0 7 141 c9 196 9 208 2 238 -13 50 -97 55 -113 6 -4 -13
-7 -105 -6 -205 2 -168 0 -183 -16 -184 -9 0 -37 -2 -62 -5 -112 -10 -170 -11
-175 -3 -3 5 15 72 40 150 25 78 48 160 51 183 3 22 7 50 9 62 5 31 -8 44 -46
50 -26 4 -38 1 -50 -13z"/>
<path d="M5442 3418 c-52 -17 -92 -63 -92 -104 0 -77 57 -133 140 -138 110 -7
175 88 125 184 -29 57 -103 81 -173 58z"/>
<path d="M1445 1726 c-51 -23 -78 -61 -77 -105 3 -66 38 -128 76 -132 6 -1 26
-3 44 -5 44 -5 126 30 143 62 26 49 4 142 -41 174 -33 23 -99 26 -145 6z"/>
<path d="M3422 1733 c-21 -7 -38 -13 -39 -13 -7 0 -33 -62 -33 -79 0 -31 45
-76 98 -98 52 -22 46 -24 115 29 37 29 53 88 33 127 -23 43 -103 59 -174 34z"/>
<path d="M3454 1382 c-119 -80 -143 -130 -84 -172 72 -52 221 -30 267 39 39
57 20 94 -69 141 -49 26 -65 25 -114 -8z"/>
</g>
</svg>
